<svg viewBox="0 0 32 32" fill="none" xmlns="http://www.w3.org/2000/svg">
  <path
    d="M12 13H15
       M12 16H20
       M12 20H20
       M12 24H20
       M21 7V2C21 1.447 20.553 1 20 1H2C1.447 1 1 1.447 1 2V24
       C1 24 1 25 2 25H3
       M26 27H30C30.553 27 31 26.553 31 26V4
       C31 3.447 30.553 3 30 3H24
       M26 30C26 30.553 25.553 31 25 31H7
       C6.447 31 6 30.553 6 30V8
       C6 7.447 6.447 7 7 7H25
       C25.553 7 26 7.447 26 8V30Z"
    stroke="currentColor"
    stroke-width="2"
    stroke-linecap="round"
    stroke-linejoin="round"
  />
</svg>
