<?xml version="1.0" standalone="no"?>
<!DOCTYPE svg PUBLIC "-//W3C//DTD SVG 20010904//EN"
 "http://www.w3.org/TR/2001/REC-SVG-20010904/DTD/svg10.dtd">
<svg version="1.0" xmlns="http://www.w3.org/2000/svg"
 width="1200.000000pt" height="1800.000000pt" viewBox="0 0 1200.000000 1800.000000"
 preserveAspectRatio="xMidYMid meet">
<g transform="translate(0.000000,1800.000000) scale(0.100000,-0.100000)"
fill="#000000" stroke="none">
<path d="M5938 13794 c-18 -10 -31 -28 -38 -54 -6 -22 -15 -42 -20 -45 -6 -3
-10 -22 -10 -41 0 -19 -7 -49 -17 -67 -12 -23 -17 -65 -20 -147 -2 -63 -8
-119 -13 -124 -5 -5 -27 -4 -54 4 -25 7 -57 9 -71 6 -47 -12 -125 -111 -125
-159 0 -8 8 -24 18 -35 9 -12 32 -42 51 -67 27 -36 38 -44 56 -39 13 3 26 1
29 -5 4 -6 21 -11 38 -11 l31 0 -8 -77 c-4 -43 -8 -87 -9 -98 0 -12 -9 -34
-20 -49 -16 -26 -20 -27 -28 -12 -11 20 -28 12 -28 -15 0 -12 7 -19 20 -19 19
0 21 -5 18 -67 -2 -44 -7 -68 -16 -71 -9 -3 -12 3 -10 14 4 26 -32 29 -104 10
-31 -8 -73 -12 -95 -9 -24 3 -53 -1 -77 -11 -21 -9 -57 -16 -80 -16 -22 -1
-52 -7 -66 -15 -14 -8 -40 -14 -58 -15 -18 0 -45 -6 -60 -14 -15 -7 -43 -17
-62 -20 -19 -4 -44 -11 -55 -16 -11 -5 -48 -18 -83 -29 -34 -12 -70 -25 -80
-30 -41 -20 -94 -41 -106 -41 -8 0 -19 -7 -26 -15 -7 -8 -20 -15 -30 -15 -16
0 -118 -50 -268 -130 -26 -14 -74 -43 -107 -65 -33 -22 -64 -42 -70 -45 -53
-27 -244 -170 -325 -244 -143 -131 -388 -389 -399 -420 -2 -6 -14 -21 -26 -33
-11 -12 -52 -68 -91 -125 -38 -57 -72 -105 -76 -108 -4 -3 -12 -17 -18 -30 -5
-14 -19 -38 -29 -55 -22 -34 -50 -84 -76 -135 -10 -19 -22 -42 -27 -50 -4 -8
-11 -22 -14 -30 -3 -8 -10 -22 -15 -30 -5 -8 -12 -22 -15 -30 -3 -8 -12 -27
-20 -42 -8 -14 -14 -35 -14 -45 0 -10 -4 -23 -9 -28 -10 -11 -29 -61 -63 -165
-11 -36 -24 -72 -28 -81 -5 -9 -12 -38 -16 -64 -3 -26 -13 -60 -20 -74 -8 -14
-14 -49 -14 -76 0 -28 -6 -57 -12 -63 -8 -8 -15 -56 -19 -125 -4 -62 -11 -132
-17 -157 -7 -25 -14 -62 -17 -84 -5 -26 -12 -40 -26 -43 -28 -8 -24 -33 6 -33
29 0 134 52 186 92 46 35 54 35 95 -1 18 -16 65 -44 104 -63 62 -29 70 -36 68
-57 -2 -17 -11 -27 -31 -32 -23 -6 -90 -50 -172 -114 -24 -19 -43 -19 -75 0
-14 8 -32 17 -40 21 -8 4 -32 20 -52 36 -38 30 -76 34 -69 7 2 -8 7 -50 11
-94 3 -44 12 -90 18 -102 7 -13 12 -65 12 -125 0 -77 4 -109 16 -126 9 -13 15
-44 15 -81 0 -32 7 -70 14 -84 7 -14 16 -45 20 -69 3 -24 10 -52 15 -63 4 -11
25 -72 45 -135 49 -152 55 -169 72 -210 8 -19 21 -48 28 -65 20 -50 145 -298
166 -330 10 -16 24 -42 30 -57 6 -16 14 -28 19 -28 4 0 10 -8 14 -17 3 -10 14
-30 23 -45 43 -65 99 -144 109 -153 6 -5 26 -30 44 -55 69 -91 310 -333 456
-456 27 -23 76 -65 109 -93 33 -28 65 -51 70 -51 6 0 21 -12 35 -26 13 -14 33
-30 45 -35 20 -9 48 -26 69 -42 39 -29 120 -77 131 -77 7 0 15 -7 19 -15 3 -8
14 -15 24 -15 11 0 25 -7 32 -15 7 -8 21 -15 31 -15 11 0 19 -3 19 -8 0 -4 24
-18 53 -31 28 -14 78 -37 111 -53 32 -15 64 -28 71 -28 7 0 18 -7 25 -15 7 -8
25 -15 40 -15 15 0 33 -7 40 -15 7 -8 22 -15 34 -15 11 0 30 -7 40 -15 11 -8
32 -15 46 -15 14 0 30 -4 36 -10 11 -11 169 -56 254 -72 30 -6 60 -14 66 -19
6 -5 40 -12 75 -15 35 -3 78 -10 94 -16 17 -5 61 -12 99 -14 38 -3 72 -7 77
-9 4 -3 7 -29 6 -58 l-2 -52 -92 -3 c-68 -2 -100 1 -122 13 -17 8 -49 15 -72
15 -23 0 -67 7 -98 16 -31 9 -72 20 -91 24 -64 16 -185 53 -217 66 -17 8 -40
14 -51 14 -12 0 -23 4 -26 9 -3 5 -18 12 -33 15 -27 6 -63 21 -126 52 -16 8
-34 14 -40 14 -10 0 -243 114 -324 160 -51 28 -190 116 -201 127 -7 7 -18 13
-23 13 -11 0 -277 198 -333 250 -165 147 -258 240 -356 355 -24 28 -46 52 -49
55 -4 3 -43 55 -89 115 -45 61 -86 115 -92 122 -5 7 -10 14 -10 17 0 2 -17 31
-38 63 -63 94 -121 203 -210 393 -14 30 -31 67 -39 82 -7 14 -13 35 -13 46 0
11 -7 25 -15 32 -8 7 -15 22 -15 34 0 12 -6 30 -14 41 -7 11 -16 38 -20 60 -5
22 -11 44 -14 50 -17 26 -102 366 -102 409 0 18 -7 53 -15 76 -9 25 -15 79
-15 134 -1 50 -6 111 -12 136 -18 76 -20 345 -3 427 8 40 15 101 15 136 0 35
7 86 15 113 8 27 15 61 15 77 0 15 9 60 21 100 22 77 41 144 59 217 7 25 18
59 26 77 8 17 14 37 14 45 0 7 7 22 15 32 8 11 15 30 15 42 0 12 7 27 15 34 8
7 15 20 15 30 0 9 12 39 26 66 15 27 49 92 76 144 28 52 54 97 59 100 4 3 13
17 19 30 34 80 254 378 377 511 71 77 258 257 318 306 78 64 296 227 315 236
8 4 29 16 45 27 17 11 39 24 50 30 11 6 34 19 50 29 61 38 417 211 436 211 6
0 23 6 37 14 30 15 49 21 202 71 149 48 267 76 399 95 36 5 69 14 75 20 5 5
25 10 44 10 32 0 33 1 27 30 -6 26 -3 31 20 42 25 11 25 13 9 25 -10 7 -26 13
-36 13 -18 0 -22 9 -19 42 1 9 -14 39 -34 66 -46 65 -88 76 -146 37 -43 -28
-99 -99 -99 -125 0 -9 5 -21 11 -27 9 -9 8 -20 -4 -45 -15 -33 -18 -34 -106
-46 -101 -13 -177 -30 -203 -43 -10 -5 -25 -9 -33 -9 -9 0 -33 -9 -55 -20 -22
-11 -47 -20 -55 -20 -22 0 -143 -49 -248 -100 -46 -22 -88 -40 -95 -40 -6 0
-17 -6 -24 -14 -8 -7 -43 -28 -79 -47 -35 -18 -83 -45 -106 -61 -23 -15 -48
-28 -56 -28 -7 0 -23 -10 -35 -22 -11 -13 -38 -32 -59 -43 -34 -18 -151 -104
-228 -170 -96 -81 -266 -235 -295 -268 -18 -21 -64 -68 -101 -104 -38 -36 -69
-72 -69 -78 0 -6 -14 -25 -30 -41 -29 -27 -143 -170 -165 -205 -5 -9 -28 -43
-49 -75 -94 -141 -126 -196 -180 -309 -32 -66 -65 -131 -73 -145 -41 -72 -67
-142 -88 -236 -7 -33 -22 -80 -33 -105 -29 -62 -44 -117 -38 -128 7 -10 -10
-90 -27 -131 -11 -27 -38 -191 -37 -227 0 -13 0 -33 1 -45 0 -13 -3 -43 -6
-68 -12 -82 -10 -303 5 -673 1 -10 6 -31 12 -45 6 -15 14 -56 18 -92 8 -70 45
-250 59 -290 5 -14 15 -45 22 -70 7 -25 16 -49 19 -55 4 -5 12 -37 20 -70 12
-60 45 -153 66 -190 6 -11 19 -46 28 -77 10 -32 22 -60 27 -64 5 -3 9 -14 9
-25 0 -10 5 -19 10 -19 6 0 13 -8 17 -17 8 -27 43 -105 56 -128 6 -11 28 -54
50 -95 21 -41 49 -84 62 -96 13 -12 33 -41 45 -65 24 -48 90 -139 209 -289 76
-97 224 -250 242 -250 5 0 17 -16 26 -35 9 -19 24 -35 33 -35 9 0 33 -17 52
-37 20 -21 50 -46 68 -56 17 -9 34 -26 37 -36 3 -10 22 -27 43 -36 21 -10 41
-24 44 -31 3 -8 11 -14 17 -14 7 0 30 -15 53 -33 23 -18 66 -48 96 -66 77 -44
86 -50 165 -101 39 -24 86 -53 105 -62 19 -10 77 -40 128 -67 50 -27 92 -47
92 -44 0 3 10 -1 23 -9 12 -8 60 -30 107 -47 47 -18 96 -39 110 -46 14 -7 50
-21 80 -32 51 -19 81 -27 185 -54 22 -6 49 -14 60 -19 11 -4 32 -12 47 -18 15
-6 51 -14 80 -17 29 -3 76 -12 103 -20 28 -8 86 -19 130 -24 123 -15 145 -22
157 -45 6 -11 14 -23 18 -26 3 -3 21 -34 38 -70 34 -70 109 -152 156 -170 26
-9 34 -8 60 11 50 36 94 93 134 171 49 96 80 114 211 123 53 3 119 11 147 16
28 5 64 12 80 15 246 43 518 120 671 190 17 8 39 14 48 14 9 0 62 23 117 50
55 28 105 50 111 50 7 0 40 18 73 39 34 21 72 42 84 46 48 15 445 281 475 318
6 7 32 30 59 52 53 42 253 238 299 293 15 17 34 32 42 32 8 0 15 7 15 16 0 9
19 37 43 63 73 83 225 296 272 384 14 26 29 47 34 47 5 0 15 17 22 38 16 50
69 154 84 167 7 5 20 35 30 65 10 30 35 91 56 135 21 45 41 94 44 110 12 50
44 156 52 168 13 21 45 139 62 237 10 53 24 107 32 120 7 14 17 59 21 100 4
41 12 102 18 135 6 33 14 116 19 185 6 69 13 144 17 166 3 24 1 56 -5 76 -6
19 -12 81 -12 138 -1 57 -7 128 -15 158 -8 29 -11 58 -8 64 8 12 -9 99 -36
183 -10 33 -24 94 -30 135 -10 70 -20 106 -40 155 -41 98 -80 206 -80 223 0
11 -16 50 -35 87 -20 37 -43 88 -52 114 -8 25 -21 53 -29 62 -8 8 -14 21 -14
27 0 23 -112 217 -154 268 -14 18 -26 35 -26 38 0 11 -79 116 -139 186 -31 36
-84 99 -117 140 -33 41 -83 96 -110 122 -27 26 -94 91 -149 144 -55 53 -111
103 -125 112 -14 9 -93 66 -175 127 -83 60 -161 117 -175 124 -41 24 -252 142
-290 163 -19 10 -42 22 -50 26 -8 5 -46 23 -85 42 -38 18 -81 38 -95 45 -14 7
-52 20 -85 30 -33 10 -64 21 -70 25 -36 24 -151 58 -275 81 -117 21 -137 26
-149 33 -8 5 -32 10 -55 13 -22 2 -61 5 -86 8 -110 12 -372 -6 -398 -27 -13
-11 -14 -10 -4 9 7 12 17 25 22 28 13 8 13 92 0 100 -5 3 -10 28 -10 55 0 27
-5 60 -11 74 -9 20 -8 32 10 68 11 24 23 58 27 76 4 19 13 32 22 32 20 0 7 13
-18 17 -14 2 -20 -5 -25 -30 -20 -90 -85 -85 -85 7 0 39 13 52 48 47 17 -2 25
4 33 28 7 20 18 31 30 31 10 0 19 -4 19 -10 0 -17 40 -11 73 12 91 64 118 118
80 161 -11 12 -23 34 -27 48 -6 29 -56 56 -77 43 -6 -4 -25 -7 -42 -6 -32 1
-87 -23 -87 -37 0 -7 -43 -31 -55 -31 -3 0 -5 12 -5 26 0 14 -9 38 -19 53 -11
14 -24 52 -30 83 -11 62 -45 138 -62 138 -20 0 7 -465 31 -534 6 -16 10 -59
10 -95 1 -36 7 -93 15 -126 8 -33 15 -85 15 -115 0 -30 7 -80 15 -110 8 -30
15 -82 15 -115 0 -33 5 -76 11 -95 6 -19 17 -87 25 -150 7 -63 20 -164 29
-225 8 -60 20 -148 25 -195 10 -102 27 -231 41 -320 6 -36 14 -110 19 -165 5
-55 13 -125 19 -155 6 -30 11 -84 12 -120 1 -36 7 -81 14 -100 8 -19 16 -82
18 -140 3 -58 10 -125 16 -150 6 -25 18 -117 26 -205 15 -145 29 -265 42 -352
5 -29 -4 -40 -119 -155 -161 -163 -258 -266 -287 -305 -24 -31 -51 -35 -51 -6
0 8 -9 17 -19 20 -18 5 -18 6 -2 22 16 16 17 106 15 1462 -3 1392 -7 1651 -24
1678 -9 16 -15 -26 -30 -214 -11 -132 -21 -215 -40 -330 -5 -27 -9 -82 -9
-121 -1 -39 -5 -84 -11 -100 -5 -16 -14 -92 -20 -169 -5 -77 -14 -162 -19
-190 -5 -27 -10 -87 -10 -133 -1 -46 -6 -92 -11 -102 -6 -11 -15 -75 -20 -142
-5 -68 -14 -148 -19 -178 -5 -30 -14 -98 -20 -150 -6 -52 -15 -133 -21 -180
-6 -47 -15 -139 -20 -204 -5 -66 -13 -127 -16 -135 -7 -15 -28 -189 -40 -321
-4 -50 -2 -58 26 -90 46 -54 48 -56 102 -128 28 -37 54 -69 57 -72 13 -9 90
-131 96 -151 11 -35 -4 -34 -37 2 -54 59 -221 240 -270 293 -27 28 -48 57 -49
66 -3 57 4 223 13 269 13 73 24 176 38 336 6 72 15 144 20 160 5 17 12 80 15
140 4 61 12 128 19 150 7 22 14 77 15 123 1 46 9 108 17 138 8 30 14 89 14
130 0 41 4 84 10 94 5 10 13 76 16 146 4 71 13 146 21 168 7 21 13 71 13 110
0 39 5 87 10 107 10 34 17 90 45 329 7 63 18 133 24 155 6 22 11 67 11 100 0
33 7 71 15 85 9 15 15 55 15 100 1 41 7 93 15 115 8 22 15 72 15 112 0 39 5
84 11 100 6 15 11 75 11 133 0 64 5 120 14 145 21 62 20 64 -28 39z m414 -269
c6 -13 19 -27 30 -30 24 -8 24 -50 0 -67 -11 -7 -22 -30 -26 -51 -4 -21 -12
-37 -18 -35 -5 2 -24 28 -41 59 -34 61 -33 94 5 129 28 26 36 25 50 -5z m-604
-295 c36 -55 39 -68 17 -76 -7 -3 -22 -26 -31 -50 -20 -53 -39 -57 -48 -8 -4
19 -16 43 -27 52 -25 21 -24 39 1 47 13 4 20 15 20 30 0 32 10 55 24 54 6 0
26 -22 44 -49z m-263 -299 c7 -21 21 -38 36 -44 23 -8 23 -9 5 -20 -10 -7 -28
-22 -39 -34 -25 -28 -42 -29 -64 -3 -11 12 -30 20 -50 20 -26 0 -33 4 -33 19
0 14 9 21 31 26 23 5 35 16 45 42 19 45 52 43 69 -6z m921 -167 c27 -8 78 -19
114 -23 36 -5 79 -13 95 -19 17 -6 64 -18 105 -27 101 -23 166 -41 290 -81
199 -63 214 -69 430 -172 69 -32 132 -62 140 -66 8 -3 22 -10 30 -16 8 -5 58
-35 110 -66 261 -154 449 -302 670 -524 132 -134 152 -155 215 -235 22 -27 46
-56 53 -64 12 -12 80 -111 122 -176 44 -68 107 -176 132 -223 15 -30 31 -59
36 -65 5 -7 12 -24 16 -39 3 -16 11 -28 16 -28 6 0 10 -11 10 -24 0 -13 7 -29
15 -36 8 -7 15 -19 15 -27 0 -8 6 -27 14 -41 25 -48 106 -277 106 -303 0 -13
7 -33 15 -43 8 -11 15 -35 15 -53 0 -19 6 -46 14 -61 7 -15 16 -53 19 -84 3
-32 9 -63 14 -70 4 -7 14 -58 20 -113 33 -260 36 -602 7 -779 -8 -49 -14 -108
-14 -130 0 -23 -7 -59 -15 -81 -8 -22 -14 -56 -15 -76 0 -20 -7 -50 -15 -65
-8 -16 -15 -47 -15 -69 0 -23 -5 -46 -12 -53 -6 -6 -14 -30 -18 -54 -5 -24
-14 -59 -21 -78 -7 -19 -23 -66 -37 -105 -13 -38 -32 -88 -42 -110 -10 -22
-26 -58 -35 -80 -9 -22 -23 -53 -30 -70 -8 -16 -16 -37 -19 -45 -3 -8 -10 -22
-15 -30 -5 -8 -12 -22 -15 -30 -4 -8 -20 -37 -37 -65 -16 -27 -37 -63 -45 -80
-21 -41 -32 -60 -82 -133 -23 -35 -42 -66 -42 -68 0 -9 -128 -174 -191 -246
-143 -163 -347 -359 -477 -458 -18 -14 -43 -33 -55 -43 -26 -22 -265 -181
-287 -190 -8 -4 -28 -16 -45 -26 -16 -11 -50 -29 -75 -41 -25 -12 -52 -25 -60
-30 -38 -23 -225 -110 -234 -110 -9 0 -68 -25 -109 -46 -16 -8 -36 -14 -46
-14 -9 0 -26 -7 -37 -15 -10 -8 -33 -15 -50 -15 -16 0 -39 -7 -50 -15 -10 -8
-31 -15 -46 -15 -15 0 -39 -5 -55 -11 -50 -20 -297 -79 -330 -79 -18 0 -50 -6
-70 -14 -21 -8 -95 -17 -164 -21 -133 -6 -179 3 -179 34 0 9 -3 25 -6 36 -10
37 40 55 154 55 58 0 116 6 138 13 22 8 75 17 118 20 43 4 84 11 90 16 6 5 38
13 71 19 33 5 85 17 115 27 30 9 74 20 97 24 23 4 48 12 55 18 7 6 27 13 43
16 35 6 89 24 128 43 16 8 35 14 44 14 8 0 27 6 41 13 15 8 43 21 62 30 19 8
65 29 101 46 36 17 71 31 77 31 6 0 17 6 24 13 7 6 33 22 58 35 88 45 155 84
158 93 2 5 8 9 13 9 11 0 72 42 77 53 2 4 8 7 13 7 9 0 176 123 229 169 139
121 230 210 325 317 33 37 67 75 76 83 29 29 169 220 169 231 0 5 5 10 10 10
6 0 15 10 20 23 12 26 30 56 46 74 7 7 22 32 34 55 12 24 30 57 41 73 10 17
22 37 25 45 3 8 8 20 10 25 2 6 8 17 13 25 8 14 55 114 89 190 8 19 21 47 29
62 7 14 13 34 13 43 0 9 7 23 15 31 8 9 15 30 15 48 0 19 7 39 15 46 8 7 15
29 15 49 0 21 7 46 15 57 8 10 15 33 15 50 0 17 6 47 14 65 8 19 24 90 36 159
12 69 23 127 25 130 2 4 9 91 15 194 8 139 8 202 0 242 -11 53 -25 68 -36 40
-4 -12 -10 -10 -26 6 -39 39 -46 12 -54 -224 -4 -120 -10 -218 -14 -218 -4 0
-21 7 -36 15 -16 8 -43 15 -60 15 -18 0 -45 7 -60 15 -16 8 -54 15 -84 15 -30
0 -75 6 -100 14 -25 8 -81 20 -125 26 -44 7 -84 16 -89 21 -6 6 -5 45 2 106 7
54 12 133 12 176 0 55 4 77 13 78 6 0 112 0 233 -1 122 -1 245 2 273 6 50 6
51 7 35 26 -17 18 -16 20 25 61 38 37 44 40 52 24 6 -9 14 -17 19 -17 17 0 11
161 -10 265 -11 55 -25 127 -31 160 -5 33 -14 64 -20 69 -5 6 -9 24 -9 42 0
17 -9 42 -19 56 -13 16 -20 39 -19 68 0 30 -5 46 -16 52 -10 6 -16 23 -16 46
0 20 -7 46 -15 56 -8 11 -15 30 -15 42 0 12 -7 27 -15 34 -8 7 -15 20 -15 29
1 25 -64 150 -75 147 -5 -1 -12 -16 -15 -32 l-6 -29 -14 33 c-8 18 -19 31 -25
28 -20 -7 -55 14 -55 34 0 41 -63 22 -270 -80 -58 -28 -118 -60 -135 -71 -33
-21 -59 -33 -92 -43 -17 -6 -23 -3 -23 8 0 18 -38 94 -51 102 -5 3 -9 14 -9
25 0 11 -7 22 -15 25 -8 4 -15 10 -15 15 0 13 -72 109 -82 109 -16 0 -8 51 10
57 38 14 215 158 331 271 30 28 58 52 62 52 4 0 18 -17 30 -37 13 -21 34 -49
46 -63 13 -14 23 -29 23 -33 0 -5 12 -26 28 -46 34 -46 49 -70 62 -100 15 -34
80 -121 91 -121 5 0 9 15 9 33 1 29 2 30 12 12 6 -11 14 -22 17 -25 11 -10 41
-72 41 -86 0 -8 7 -14 15 -14 9 0 15 9 15 25 0 14 -4 25 -9 25 -5 0 -14 14
-20 30 -5 17 -15 30 -20 30 -6 0 -11 8 -11 19 0 10 -7 24 -15 31 -8 7 -15 21
-15 31 0 11 -5 19 -10 19 -6 0 -15 10 -20 23 -17 37 -45 79 -72 105 -10 9 -18
24 -18 33 0 8 -13 29 -30 45 -16 16 -30 34 -30 39 0 6 -27 39 -61 75 -33 36
-81 91 -105 123 -41 52 -141 157 -150 157 -2 0 -13 8 -23 18 -116 107 -116
107 -140 83 -12 -12 -21 -24 -21 -27 0 -4 70 -75 155 -158 85 -83 155 -155
155 -161 -1 -5 -34 -34 -75 -64 -40 -29 -89 -66 -107 -83 -58 -52 -158 -142
-194 -175 -20 -18 -37 -33 -39 -33 -2 0 -18 19 -34 43 -44 61 -139 158 -188
191 -24 16 -43 36 -43 44 0 8 15 29 33 46 18 17 51 54 72 81 50 63 76 94 96
114 28 29 109 139 109 149 0 5 10 12 23 16 18 5 20 8 7 16 -20 13 -60 13 -60
0 0 -5 -3 -10 -7 -10 -5 0 -9 18 -10 40 -2 39 -2 40 31 40 20 0 40 -8 51 -20
10 -11 24 -20 32 -20 18 0 16 7 -7 30 -11 11 -22 20 -25 20 -3 0 -14 8 -24 18
-11 9 -26 22 -33 27 -7 6 -31 24 -53 41 -22 17 -48 34 -57 37 -10 4 -18 11
-18 17 0 5 -7 10 -15 10 -7 0 -18 6 -22 14 -4 7 -24 22 -43 33 -37 20 -92 54
-100 63 -3 3 -25 16 -50 29 -25 14 -47 27 -50 30 -7 9 -71 39 -97 46 -13 3
-23 11 -23 16 0 5 -8 9 -19 9 -10 0 -24 6 -30 14 -7 8 -23 17 -36 20 -14 4
-25 11 -25 16 0 6 -7 10 -15 10 -8 0 -32 9 -52 20 -21 11 -43 20 -48 20 -6 0
-33 11 -61 24 -27 13 -80 33 -119 46 -38 12 -74 26 -79 31 -6 5 -22 9 -37 9
-15 0 -32 7 -39 15 -7 8 -23 15 -37 15 -13 0 -40 7 -60 15 -19 8 -52 15 -72
15 -20 0 -45 7 -55 15 -12 9 -42 15 -72 15 -34 0 -56 5 -64 15 -13 16 -76 20
-96 7 -6 -4 -14 -17 -18 -30 -9 -26 -27 -37 -78 -46 -56 -10 -82 7 -75 49 4
24 1 35 -9 39 -10 4 -14 22 -14 64 0 32 3 62 7 65 12 13 109 7 159 -9z m-709
-211 c3 -9 1 -34 -6 -57 -24 -82 -37 -180 -27 -214 6 -22 6 -36 -2 -44 -13
-13 -74 -27 -162 -37 -36 -4 -75 -13 -87 -19 -12 -7 -39 -12 -60 -12 -21 0
-47 -7 -57 -15 -11 -8 -33 -15 -49 -15 -15 0 -38 -5 -50 -12 -12 -6 -35 -15
-52 -19 -66 -17 -137 -45 -218 -86 -49 -25 -77 -25 -77 1 0 23 -71 136 -112
180 -40 41 -46 60 -25 73 16 10 76 33 104 40 12 3 28 11 34 19 6 8 20 14 29
14 10 0 33 7 52 16 77 39 91 44 110 44 11 0 32 6 46 14 15 7 54 21 87 30 33
10 74 22 90 28 17 6 55 14 86 18 30 4 64 12 75 17 10 6 51 13 90 17 39 3 88
12 110 20 52 19 63 19 71 -1z m811 -2 c20 -11 60 -24 87 -31 68 -16 170 -39
229 -50 27 -6 55 -15 62 -21 15 -12 9 -68 -12 -116 -8 -17 -14 -39 -14 -50 0
-10 -10 -52 -22 -93 -11 -41 -26 -111 -33 -155 -20 -118 -19 -118 -74 -110
-25 4 -54 13 -65 21 -11 8 -37 14 -57 14 -20 0 -53 7 -72 15 -20 8 -62 15 -93
15 l-57 0 7 58 c16 121 26 242 32 367 3 72 7 136 9 143 6 17 30 15 73 -7z
m597 -185 c9 -9 27 -16 40 -16 13 0 26 -4 30 -10 3 -5 20 -14 38 -19 56 -17
104 -36 118 -47 8 -6 40 -18 73 -27 32 -9 61 -18 63 -21 3 -2 -4 -13 -14 -24
-32 -35 -53 -66 -53 -79 0 -7 -4 -13 -9 -13 -5 0 -14 -12 -20 -27 -6 -16 -15
-35 -20 -43 -14 -21 -107 -218 -125 -262 -8 -21 -20 -38 -26 -38 -13 0 -89 40
-108 58 -7 6 -22 12 -32 12 -10 0 -21 4 -24 9 -6 8 -73 32 -128 45 -34 8 -37
35 -8 89 11 20 20 52 20 70 0 18 7 42 15 53 8 10 15 33 15 51 0 18 6 47 14 65
8 18 22 71 32 117 l18 83 38 -5 c20 -3 45 -12 53 -21z m-2459 -134 c5 -4 23
-32 38 -62 16 -30 49 -85 73 -122 24 -37 42 -71 39 -76 -2 -4 -37 -25 -78 -45
-78 -41 -93 -50 -185 -111 -153 -102 -353 -283 -493 -445 -68 -79 -157 -197
-176 -233 -18 -34 -25 -35 -63 -2 l-31 26 19 26 c11 15 31 40 45 56 14 16 26
32 26 35 0 3 15 22 33 42 17 20 55 63 82 95 28 33 89 100 138 150 48 50 87 94
87 97 0 19 -37 3 -77 -33 -25 -22 -50 -40 -54 -40 -5 0 -18 -8 -28 -17 -11
-10 -38 -34 -61 -53 -23 -19 -49 -43 -58 -53 -9 -11 -35 -38 -58 -60 -48 -49
-104 -151 -104 -189 0 -16 -5 -28 -10 -28 -18 0 -64 27 -83 47 -17 19 -16 21
4 46 11 15 29 27 40 27 14 0 21 9 25 30 4 16 13 35 20 41 8 6 14 18 14 27 0 8
11 25 25 38 14 13 25 28 25 35 0 12 57 69 69 69 3 0 14 18 24 39 11 21 39 60
63 87 24 27 44 52 44 57 0 13 -21 7 -26 -8 -4 -8 -12 -15 -20 -15 -8 0 -14 -4
-14 -10 0 -5 -26 -36 -58 -67 -32 -32 -74 -78 -92 -103 -19 -25 -47 -57 -62
-72 -16 -15 -28 -31 -28 -35 0 -5 -13 -23 -30 -41 -16 -18 -30 -38 -30 -43 0
-5 -7 -12 -15 -15 -8 -4 -15 -11 -15 -18 0 -6 -13 -26 -29 -43 -16 -17 -31
-43 -35 -57 -3 -14 -11 -26 -16 -26 -6 0 -10 -9 -10 -20 0 -11 -4 -20 -9 -20
-10 0 -32 -35 -52 -82 -6 -16 -15 -28 -20 -28 -5 0 -9 -11 -9 -24 0 -13 -7
-29 -15 -36 -8 -7 -15 -18 -15 -25 0 -7 -7 -18 -15 -25 -8 -7 -15 -23 -15 -37
0 -13 -7 -26 -15 -29 -9 -4 -15 -19 -15 -40 0 -22 -6 -37 -15 -40 -9 -4 -15
-19 -15 -39 0 -18 -7 -38 -15 -45 -8 -7 -15 -22 -15 -34 0 -12 -7 -31 -15 -42
-8 -10 -15 -33 -15 -50 0 -16 -7 -39 -15 -50 -8 -10 -15 -35 -15 -54 0 -19 -7
-44 -15 -54 -10 -13 -15 -43 -15 -82 0 -42 -5 -65 -15 -74 -12 -10 -15 -37
-15 -126 0 -68 4 -114 10 -114 5 0 12 10 14 23 3 12 8 36 11 52 4 17 6 52 6
78 -1 26 5 60 13 75 15 28 46 153 46 186 0 21 57 173 73 193 5 7 6 17 2 22 -3
6 -1 20 5 31 6 11 13 34 15 51 2 17 11 42 20 56 9 13 14 31 11 39 -3 8 3 23
14 34 10 10 22 35 26 55 3 20 13 39 20 42 8 3 14 17 14 32 0 18 11 35 36 55
33 26 36 32 31 67 -3 22 -1 39 4 39 5 0 9 6 9 14 0 8 4 18 10 21 10 6 72 -24
79 -38 2 -5 14 -12 27 -17 34 -13 30 -29 -11 -46 -20 -8 -43 -23 -53 -32 -26
-27 -62 -80 -62 -90 0 -5 -7 -15 -15 -22 -8 -7 -15 -21 -15 -31 0 -11 -13 -47
-29 -81 -16 -35 -33 -76 -36 -93 -4 -16 -10 -39 -15 -50 -28 -69 -43 -114 -46
-145 -9 -86 -21 -141 -35 -157 -10 -13 -14 -49 -14 -140 0 -128 15 -167 27
-72 3 28 11 56 17 62 6 6 11 34 11 62 0 30 6 59 15 71 8 10 15 37 15 59 0 23
9 53 20 70 11 17 20 42 20 57 0 15 4 29 9 33 5 3 13 20 17 37 3 18 10 39 15
48 4 8 15 33 24 55 9 22 23 54 30 70 8 17 16 40 20 53 3 12 11 22 16 22 5 0 9
6 9 14 0 14 34 81 70 141 10 17 19 40 19 53 1 32 59 31 89 -1 l22 -24 -20 -18
c-11 -10 -20 -23 -20 -28 0 -6 -7 -18 -15 -27 -26 -29 -104 -177 -151 -290 -8
-19 -22 -47 -30 -62 -7 -14 -14 -34 -14 -45 0 -10 -7 -27 -15 -37 -8 -11 -15
-31 -15 -44 0 -13 -5 -33 -12 -45 -6 -12 -15 -37 -20 -57 -50 -192 -88 -400
-74 -400 12 0 55 55 56 70 1 12 3 11 14 -3 17 -22 18 -21 45 73 32 111 39 140
46 189 3 24 12 53 20 64 8 12 15 38 15 58 0 20 7 42 15 49 8 7 15 24 15 39 0
14 7 35 15 45 8 11 15 26 15 33 0 17 99 221 111 229 5 3 9 13 9 23 0 10 7 24
15 31 8 7 15 21 15 31 0 11 4 19 9 19 5 0 13 9 16 20 12 37 47 23 113 -42 23
-23 23 -23 2 -37 -11 -7 -20 -20 -20 -27 0 -8 -4 -14 -8 -14 -10 0 -112 -199
-112 -217 0 -6 -5 -13 -11 -15 -5 -2 -12 -16 -13 -31 -2 -15 -11 -36 -20 -46
-9 -9 -16 -31 -16 -47 0 -16 -7 -38 -15 -48 -8 -11 -15 -37 -15 -57 0 -21 -5
-39 -12 -41 -6 -2 -13 -30 -16 -61 -2 -32 -8 -60 -13 -63 -5 -3 -9 -35 -9 -72
0 -75 18 -76 27 -1 2 24 11 61 19 82 8 20 14 53 14 72 0 18 4 36 9 40 5 3 13
20 17 38 3 17 19 59 34 92 15 33 35 80 45 105 10 25 33 70 51 100 50 84 113
201 130 240 8 20 30 46 49 58 18 13 57 51 87 85 61 71 255 267 263 267 3 0 38
26 77 58 83 66 176 132 189 132 5 0 16 11 25 25 9 14 22 25 28 25 13 0 100 54
162 99 22 17 62 40 90 52 27 11 77 34 112 50 34 16 68 29 75 29 6 0 59 19 117
41 58 23 125 48 150 56 25 8 59 21 75 29 17 8 48 15 70 17 l40 2 -2 -55 c-1
-30 -4 -71 -7 -90 -17 -126 -36 -281 -46 -375 -6 -60 -16 -133 -22 -162 -6
-28 -8 -58 -5 -67 4 -9 2 -26 -2 -39 -5 -12 -17 -94 -26 -182 -37 -368 -36
-365 -80 -365 -22 0 -88 43 -114 73 -7 9 -19 17 -26 17 -6 0 -20 9 -30 20 -10
11 -24 20 -32 20 -7 0 -26 8 -41 17 -46 30 -186 140 -206 162 -11 11 -25 21
-31 21 -7 0 -32 17 -56 38 -24 20 -62 49 -84 63 -183 118 -204 129 -245 129
-20 0 -30 -5 -30 -15 0 -8 7 -15 15 -15 8 0 15 -6 15 -12 1 -7 24 -32 53 -56
29 -23 68 -56 87 -72 19 -17 53 -43 74 -58 22 -15 51 -37 65 -50 13 -12 41
-32 60 -44 20 -12 42 -28 50 -36 8 -7 26 -21 40 -30 14 -9 88 -63 163 -119 76
-56 155 -113 175 -127 21 -13 49 -34 63 -46 14 -12 35 -29 48 -37 22 -16 28
-53 16 -100 -8 -30 -22 -29 -59 3 -41 36 -181 145 -212 166 -14 9 -29 20 -32
25 -3 5 -26 24 -51 43 -25 19 -48 39 -51 43 -4 5 -12 8 -18 6 -12 -4 86 -109
223 -237 84 -78 88 -83 70 -97 -10 -8 -27 -15 -37 -15 -20 0 -98 75 -228 219
-46 51 -100 110 -119 131 -19 21 -60 66 -90 101 -96 110 -364 379 -378 379
-40 0 45 -160 138 -260 14 -15 61 -67 105 -116 44 -49 118 -128 165 -176 143
-146 199 -215 200 -248 0 -15 -51 -34 -165 -61 -27 -6 -66 -17 -85 -24 -19 -7
-66 -18 -105 -24 -100 -17 -173 -31 -230 -47 -97 -26 -160 -42 -195 -49 -52
-10 -100 -22 -145 -35 -22 -7 -62 -15 -90 -20 -27 -4 -86 -18 -130 -29 -44
-12 -91 -24 -105 -26 -14 -1 -49 -8 -79 -14 -29 -6 -68 -11 -85 -11 -17 0 -43
-8 -56 -17 -23 -17 -37 -23 -124 -56 -18 -7 -40 -17 -47 -23 -33 -26 -70 -26
-110 2 -44 30 -55 71 -17 61 23 -6 48 7 48 26 0 6 -24 7 -67 3 -38 -4 -88 -8
-113 -10 -25 -1 -57 -6 -71 -10 -23 -6 -27 -4 -32 16 -4 13 -2 49 3 79 6 30
14 97 19 149 6 53 15 108 20 123 6 16 11 45 11 66 0 20 7 46 15 57 8 10 15 35
15 55 0 19 7 44 15 55 8 10 15 35 15 54 0 20 6 45 14 56 8 11 17 37 21 57 4
20 11 37 16 37 5 0 9 8 9 17 0 10 20 58 44 108 24 49 46 97 50 105 3 8 10 23
16 33 5 9 15 25 20 35 6 9 15 28 21 42 5 13 13 27 17 30 4 3 18 26 32 53 13
26 28 47 32 47 5 0 8 5 8 11 0 6 8 21 18 34 9 12 24 33 32 45 27 41 127 174
149 200 12 14 45 51 74 84 109 125 282 284 385 356 20 14 43 30 50 37 19 18
209 142 235 154 12 5 36 18 52 29 17 11 37 23 45 27 8 3 26 15 39 25 26 20 31
21 47 10z m1014 -151 c0 -73 -14 -87 -99 -94 -35 -3 -68 -10 -74 -16 -6 -6
-32 -11 -57 -11 -25 0 -55 -7 -66 -15 -10 -8 -30 -15 -42 -15 -13 0 -38 -6
-55 -14 -18 -8 -63 -24 -100 -37 -37 -12 -70 -26 -73 -30 -3 -5 -13 -9 -23 -9
-10 0 -24 -7 -31 -15 -29 -35 -63 -7 -105 83 -18 38 -13 52 20 52 13 0 38 8
57 17 18 9 45 22 60 30 14 7 33 13 42 13 8 0 30 6 48 14 18 8 60 22 93 31 33
10 77 24 98 31 20 8 55 14 77 14 21 0 51 5 67 11 30 12 143 28 156 21 4 -2 7
-29 7 -61z m1935 59 c8 -13 124 -90 136 -90 5 0 9 -4 9 -9 0 -5 8 -12 18 -15
10 -4 32 -19 48 -34 16 -16 48 -37 71 -48 59 -26 57 -54 -7 -122 -28 -29 -50
-57 -50 -62 0 -6 -4 -10 -9 -10 -5 0 -20 -17 -32 -37 -13 -21 -26 -40 -31 -43
-4 -3 -32 -39 -63 -80 -67 -92 -74 -100 -84 -100 -5 0 -31 18 -59 40 -27 22
-53 40 -57 40 -4 0 -24 12 -44 28 -49 37 -96 62 -115 62 -19 0 -22 50 -5 67
14 14 20 26 93 168 31 61 69 133 84 160 16 28 34 60 40 73 13 23 46 30 57 12z
m-1161 -220 c17 -5 81 -22 141 -36 61 -15 124 -33 142 -40 18 -8 45 -11 62 -8
38 8 92 -16 115 -51 9 -14 21 -25 28 -25 6 0 27 -10 47 -22 47 -30 150 -68
167 -61 25 9 145 -57 193 -106 29 -30 63 -54 91 -63 25 -8 60 -29 79 -47 18
-17 41 -31 51 -31 9 0 27 -9 40 -20 13 -11 27 -20 31 -20 4 0 11 -9 14 -20 4
-11 17 -26 30 -33 25 -13 75 -80 75 -100 0 -17 82 -97 99 -97 17 0 103 -86
128 -130 12 -19 24 -51 28 -70 4 -19 23 -52 41 -73 19 -20 34 -44 34 -52 0 -8
23 -37 52 -64 48 -46 51 -51 50 -97 0 -36 9 -68 33 -119 18 -38 36 -86 40
-105 4 -19 14 -44 21 -55 8 -11 14 -27 14 -36 0 -11 16 -23 44 -34 48 -18 59
-37 43 -75 -32 -77 -34 -91 -26 -135 5 -26 11 -50 14 -55 3 -4 2 -21 -1 -38
l-6 -30 -72 5 c-39 3 -81 4 -93 4 -12 0 -25 4 -28 9 -3 6 -21 10 -38 10 -18 0
-58 9 -90 20 -31 11 -68 20 -83 20 -15 0 -45 5 -68 11 -104 27 -154 39 -191
44 -22 4 -45 11 -52 17 -7 5 -16 7 -21 4 -6 -3 -29 -2 -53 4 -24 5 -84 18
-134 29 -90 20 -137 30 -250 51 -206 39 -305 70 -305 96 0 16 40 64 215 259
77 86 148 167 158 178 47 55 177 230 177 237 0 5 6 15 13 22 18 19 43 78 51
118 6 31 5 33 -7 18 -8 -10 -17 -18 -20 -18 -11 0 -148 -143 -282 -294 -38
-43 -75 -84 -80 -90 -34 -37 -147 -166 -171 -195 -16 -19 -53 -62 -83 -95
-152 -174 -171 -188 -200 -162 -10 9 -23 16 -29 16 -21 0 -13 15 18 34 32 18
190 175 190 189 0 11 -17 8 -32 -6 -7 -7 -51 -42 -98 -77 -47 -35 -93 -72
-103 -82 -29 -30 -65 -50 -77 -43 -5 3 -10 32 -10 63 l1 57 62 48 c208 162
285 219 305 227 12 5 22 13 22 18 0 4 27 25 60 46 33 21 60 41 60 45 0 3 17
17 38 31 58 39 239 186 303 248 38 35 56 59 50 65 -18 18 -102 -15 -184 -70
-43 -29 -82 -53 -87 -53 -5 0 -16 -8 -25 -17 -33 -33 -129 -103 -141 -103 -6
0 -19 -11 -28 -24 -8 -14 -26 -28 -38 -32 -13 -4 -45 -26 -73 -48 -27 -23 -68
-55 -90 -71 -21 -16 -47 -37 -57 -47 -10 -10 -22 -18 -28 -18 -5 0 -26 -11
-46 -25 -20 -14 -45 -25 -56 -25 -23 0 -47 52 -53 118 -3 26 -12 115 -20 197
-8 83 -17 174 -19 204 -3 30 -10 75 -15 100 -23 100 -44 250 -46 332 -1 47 -5
91 -9 98 -4 6 -6 24 -5 39 2 15 0 33 -5 40 -4 7 -5 20 -2 28 3 8 -1 28 -9 44
-19 37 -19 60 1 88 17 25 25 26 68 12z m-1568 -52 c16 -24 35 -47 41 -51 19
-12 16 -57 -4 -63 -28 -8 -87 -37 -103 -50 -8 -6 -31 -20 -50 -31 -67 -37
-140 -86 -140 -94 0 -5 -7 -9 -15 -9 -8 0 -15 -5 -15 -10 0 -6 -9 -14 -19 -18
-25 -9 -115 -89 -228 -200 -117 -115 -168 -173 -243 -276 -66 -91 -67 -92
-125 -52 -58 40 -58 47 0 111 24 28 45 55 45 60 0 6 15 26 33 46 17 20 58 68
90 107 108 131 327 327 494 440 92 63 198 131 204 132 4 0 19 -19 35 -42z
m3559 -354 c14 -9 25 -22 25 -29 0 -8 11 -22 25 -33 14 -11 25 -27 25 -36 0
-14 -4 -14 -22 -5 -13 7 -30 15 -38 19 -15 7 -32 37 -45 78 -8 26 -2 27 30 6z
m-2576 -646 c2 -40 4 -91 3 -113 -4 -151 -2 -357 3 -395 5 -32 2 -51 -8 -65
-14 -18 -17 -18 -34 -4 -10 9 -26 19 -36 22 -27 10 -35 45 -31 132 3 44 4 103
4 132 -1 29 4 62 11 74 6 12 13 46 14 74 3 65 10 77 41 69 14 -4 24 -2 24 5 0
6 -9 11 -20 11 -24 0 -37 27 -21 43 6 6 11 25 11 43 0 28 8 40 30 43 3 1 7
-32 9 -71z m2941 -12 c0 -19 5 -38 10 -41 6 -3 10 -19 10 -34 0 -16 6 -34 14
-40 8 -7 18 -27 22 -44 3 -18 10 -36 14 -42 3 -5 17 -38 30 -73 12 -34 27 -65
31 -68 5 -3 9 -25 9 -48 l0 -43 -72 -11 c-177 -28 -268 -46 -295 -60 -12 -7
-38 -12 -58 -12 -20 0 -49 -7 -65 -16 -31 -19 -63 -13 -54 10 3 8 -2 28 -10
45 -9 16 -16 40 -16 53 0 13 -6 32 -14 43 -7 11 -16 33 -20 48 -4 16 -18 47
-33 70 -30 47 -23 68 23 78 16 3 38 11 49 17 11 6 27 13 35 16 8 3 22 10 30
15 8 5 35 19 60 31 25 11 52 25 60 29 8 4 24 13 36 18 101 52 130 69 137 80 4
7 21 13 37 13 27 0 30 -3 30 -34z m215 -456 c9 -15 -6 -60 -20 -60 -27 0 -35
-70 -10 -90 11 -9 15 -33 15 -84 0 -44 5 -79 14 -91 15 -22 31 -201 20 -228
-7 -20 -54 -23 -86 -6 -13 7 -103 12 -242 14 l-221 3 -7 68 c-13 133 -26 201
-43 227 -23 36 -6 67 37 67 29 0 74 10 203 45 90 24 139 36 184 44 24 5 48 16
53 25 5 9 21 16 35 16 15 0 23 3 19 8 -4 4 -17 7 -29 7 -11 0 -22 5 -24 11 -8
23 88 46 102 24z m-3338 -324 c98 -96 199 -191 225 -212 46 -38 60 -64 36 -64
-7 0 -472 -1 -1033 -3 -1041 -4 -1266 -11 -1345 -43 -35 -14 -46 -14 -86 -3
-45 14 -72 34 -61 45 3 3 25 8 49 11 24 3 46 11 50 16 3 6 32 12 65 14 32 2
67 8 78 13 11 5 42 11 70 14 27 4 54 11 59 16 6 6 28 10 50 10 23 0 52 6 67
13 14 8 49 17 78 20 29 3 58 10 65 15 6 5 34 12 61 16 28 4 61 11 75 15 14 5
61 16 105 25 44 10 103 23 130 31 65 17 146 34 216 44 30 5 65 13 77 20 11 6
36 11 55 11 19 0 54 7 77 15 23 8 54 15 69 15 14 0 46 6 71 14 25 8 70 19 100
25 153 29 271 53 320 65 96 23 85 30 277 -158z m963 124 c19 -5 52 -10 72 -10
20 0 39 -4 43 -9 3 -5 31 -12 63 -16 31 -3 75 -13 97 -21 23 -8 56 -14 75 -14
19 -1 53 -7 75 -15 22 -8 56 -15 75 -15 19 0 53 -7 75 -15 22 -8 55 -14 74
-15 19 0 57 -6 85 -14 55 -16 134 -34 206 -47 25 -4 77 -15 115 -23 39 -8 95
-20 125 -26 30 -6 69 -16 85 -22 17 -6 55 -14 85 -18 30 -4 68 -12 83 -18 16
-7 47 -12 71 -12 23 0 47 -5 52 -10 6 -6 41 -13 78 -17 36 -3 69 -10 72 -14 3
-5 26 -9 52 -9 26 0 57 -3 70 -6 32 -9 28 -34 -5 -34 -16 -1 -552 -1 -1193 0
-641 0 -1171 0 -1177 0 -28 0 -10 30 45 76 62 52 160 145 281 265 42 42 83 78
91 81 16 5 72 -4 130 -22z m-600 -475 c23 -31 124 -139 258 -274 136 -139 132
-129 108 -252 -8 -41 -19 -105 -25 -144 -6 -38 -16 -101 -21 -140 -6 -38 -16
-106 -21 -150 -6 -44 -17 -100 -25 -125 -8 -25 -14 -70 -14 -100 0 -30 -7 -80
-15 -110 -8 -30 -15 -79 -15 -108 0 -29 -5 -62 -11 -73 -6 -11 -14 -64 -18
-118 -4 -53 -11 -103 -16 -111 -4 -7 -12 -45 -16 -84 -4 -39 -15 -114 -24
-166 -9 -52 -23 -144 -30 -205 -17 -130 -32 -229 -46 -305 -6 -30 -13 -91 -16
-135 -3 -44 -9 -85 -14 -92 -6 -6 -14 -58 -19 -115 -5 -56 -15 -139 -23 -183
-10 -52 -12 -86 -5 -100 18 -39 37 -69 61 -94 13 -15 32 -38 42 -54 15 -24 16
-30 3 -45 -8 -9 -23 -35 -33 -57 -11 -22 -25 -47 -31 -55 -6 -8 -19 -42 -28
-75 -23 -80 -29 -90 -57 -90 -18 0 -25 6 -27 25 -4 31 -8 43 -68 164 -49 102
-55 130 -31 149 7 7 33 41 57 76 39 60 42 67 31 96 -6 17 -11 63 -12 101 0 38
-5 92 -10 119 -6 28 -14 88 -18 135 -4 47 -13 105 -19 130 -6 25 -16 86 -21
135 -17 158 -60 459 -71 496 -5 20 -10 56 -10 81 0 24 -6 68 -14 98 -8 30 -17
94 -21 142 -4 49 -11 90 -16 94 -5 3 -9 32 -9 64 0 32 -5 71 -10 85 -6 15 -15
70 -20 123 -6 53 -15 108 -20 122 -5 14 -14 68 -19 120 -5 52 -14 120 -19 150
-5 30 -15 96 -22 145 -6 50 -18 123 -26 164 -24 128 -23 132 59 223 169 189
270 289 281 278 14 -14 -9 -55 -84 -150 -55 -68 -78 -96 -162 -193 -17 -19
-26 -39 -23 -52 3 -11 10 -56 16 -100 6 -44 17 -125 24 -180 8 -55 19 -138 25
-185 6 -47 15 -112 20 -145 5 -33 16 -109 25 -170 8 -60 20 -141 25 -180 6
-38 15 -106 21 -150 5 -44 14 -102 20 -128 6 -26 15 -82 19 -125 5 -42 16
-126 25 -187 22 -149 43 -318 55 -450 6 -60 15 -123 20 -139 6 -16 10 -41 10
-55 0 -14 5 -33 11 -41 7 -11 8 147 4 530 -5 392 -9 2156 -5 2188 1 7 47 -26
60 -43z m142 24 c11 -6 29 -19 41 -29 116 -97 143 -120 233 -197 53 -46 66
-53 104 -53 24 0 66 6 94 14 57 17 138 32 241 47 39 5 79 14 90 19 11 5 54 14
95 20 41 6 100 15 130 20 30 5 71 13 90 19 19 6 54 11 78 11 23 0 59 7 79 15
19 8 54 15 78 15 23 0 64 7 91 15 27 8 67 15 89 15 22 0 58 5 80 11 22 5 92
16 155 24 63 8 162 21 220 30 119 16 230 19 230 6 0 -5 -28 -12 -62 -16 -35
-4 -72 -14 -83 -21 -11 -8 -44 -14 -76 -14 -34 0 -59 -5 -61 -11 -2 -6 -28
-14 -58 -16 -30 -2 -100 -15 -155 -28 -55 -13 -122 -26 -149 -29 -27 -3 -54
-10 -60 -15 -6 -4 -42 -11 -81 -15 -38 -4 -74 -11 -80 -15 -5 -5 -41 -11 -80
-15 -38 -4 -74 -11 -80 -15 -5 -5 -36 -11 -67 -14 -32 -3 -72 -10 -90 -16 -33
-10 -83 -20 -233 -46 -44 -8 -114 -21 -155 -29 -41 -9 -108 -20 -149 -26 -40
-6 -84 -16 -98 -21 -66 -25 -75 -19 -250 154 -181 178 -215 217 -188 217 9 0
25 -5 37 -11z m-2297 -29 c232 -26 319 -38 392 -56 34 -7 79 -14 100 -14 21 0
56 -7 78 -15 22 -8 57 -14 78 -15 20 0 63 -6 95 -14 31 -8 102 -22 157 -31 55
-9 114 -21 130 -25 17 -5 57 -11 90 -15 33 -4 65 -11 71 -16 6 -5 40 -12 75
-15 35 -3 83 -12 107 -20 23 -8 57 -14 75 -14 18 0 37 -4 43 -10 5 -5 34 -12
64 -15 l55 -6 87 78 c47 43 99 89 115 102 15 13 44 38 63 55 19 18 50 40 69
49 90 45 58 -4 -90 -138 -19 -17 -70 -64 -115 -105 -142 -132 -145 -134 -165
-122 -10 7 -37 14 -61 17 -24 3 -74 12 -113 20 -158 33 -284 57 -349 66 -38 5
-76 14 -85 19 -9 5 -46 11 -81 15 -36 4 -72 9 -80 13 -16 6 -112 24 -225 42
-38 6 -78 15 -87 20 -10 6 -50 13 -90 16 -40 4 -81 11 -91 16 -10 5 -48 13
-85 18 -37 4 -96 15 -132 24 -36 9 -98 21 -139 26 -40 5 -78 13 -85 18 -6 5
-39 12 -73 15 -71 6 -97 16 -67 28 30 12 86 10 269 -11z m1693 -35 c12 -3 22
-11 22 -18 0 -12 -34 -50 -80 -90 -27 -23 -99 -32 -141 -18 -32 10 -112 25
-204 38 -22 3 -44 9 -50 13 -5 4 -29 11 -52 15 -23 3 -47 13 -54 21 -8 10 -22
13 -41 9 -38 -9 -93 4 -80 17 19 19 608 30 680 13z m1220 4 c67 2 83 0 88 -13
9 -23 -14 -46 -45 -46 -15 0 -31 -4 -36 -9 -6 -5 -56 -16 -111 -25 -89 -14
-106 -14 -142 -2 -50 18 -102 55 -102 73 0 16 -13 13 105 20 55 2 102 7 105 9
2 3 16 2 30 -2 14 -4 62 -6 108 -5z m-3207 -24 c33 -9 63 -14 67 -11 8 5 154
-29 187 -44 11 -5 38 -11 60 -13 22 -2 65 -14 95 -26 30 -11 71 -21 92 -21 20
0 49 -5 65 -11 35 -14 91 -27 168 -40 33 -5 69 -13 80 -18 11 -5 58 -16 105
-25 87 -17 123 -25 220 -46 30 -6 89 -18 130 -27 137 -27 165 -33 211 -46 52
-14 79 -32 79 -53 0 -20 -45 -89 -68 -106 -11 -7 -55 -56 -100 -108 -44 -52
-102 -119 -129 -148 -26 -29 -59 -68 -73 -88 -14 -19 -42 -54 -63 -77 -21 -23
-50 -63 -63 -89 -13 -27 -31 -48 -39 -48 -8 0 -15 -7 -15 -15 0 -8 -16 -40
-36 -70 -19 -31 -34 -65 -32 -77 3 -18 14 -10 73 49 102 101 342 361 388 419
12 15 35 42 52 59 16 17 55 62 85 99 30 37 72 87 93 109 21 23 52 61 69 85 34
46 67 55 104 28 13 -10 33 -13 62 -9 38 5 42 4 42 -16 0 -23 -7 -31 -120 -131
-87 -77 -104 -92 -161 -145 -24 -22 -64 -57 -89 -79 -57 -49 -250 -229 -457
-426 -24 -22 -43 -44 -43 -49 0 -5 -7 -11 -15 -15 -8 -3 -15 -15 -15 -27 0
-18 4 -20 28 -15 15 4 34 15 42 24 16 17 26 24 130 97 30 21 62 44 70 52 8 7
56 45 105 84 50 39 99 81 110 94 11 13 47 45 80 72 63 50 170 149 239 220 45
46 86 62 103 41 9 -12 32 -152 39 -238 2 -19 8 -60 14 -90 21 -115 61 -368 69
-435 5 -38 16 -111 25 -161 8 -50 18 -110 20 -135 3 -24 10 -64 16 -89 6 -25
13 -70 15 -100 2 -30 7 -75 11 -100 4 -25 9 -56 11 -70 10 -63 11 -345 2 -351
-10 -6 -41 -1 -124 20 -22 5 -76 17 -120 27 -44 9 -100 22 -125 29 -25 8 -73
21 -107 31 -58 16 -77 34 -54 48 5 4 12 24 16 46 6 37 9 40 40 40 18 0 46 -7
61 -15 16 -8 39 -15 51 -15 12 0 24 -4 27 -9 3 -4 31 -11 61 -14 31 -3 62 -11
69 -16 14 -12 55 -16 126 -13 55 2 43 17 -25 30 -27 6 -65 15 -82 21 -18 6
-46 16 -63 21 -53 18 -94 32 -130 47 -20 8 -61 18 -92 22 -35 4 -72 18 -95 34
-35 23 -93 55 -199 107 -23 11 -47 27 -54 35 -7 8 -21 15 -32 15 -28 0 -76 27
-88 50 -6 11 -26 27 -45 35 -19 7 -35 19 -35 25 0 6 -12 15 -26 20 -42 16 -85
50 -94 76 -5 13 -30 34 -58 48 -27 14 -57 37 -67 52 -10 15 -50 60 -89 100
-151 153 -164 169 -241 303 -5 9 -16 23 -23 31 -27 32 -90 129 -97 150 -4 13
-28 54 -54 93 -25 38 -51 77 -56 87 -6 10 -16 24 -22 31 -6 8 -14 30 -18 49
-4 19 -16 53 -25 75 -10 22 -26 60 -35 85 -9 25 -23 59 -31 75 -7 17 -24 84
-37 149 -14 72 -28 121 -36 124 -11 4 -12 -12 -6 -79 4 -46 11 -94 16 -107 5
-13 9 -33 9 -45 0 -12 7 -35 15 -51 8 -15 15 -41 15 -56 0 -16 7 -35 15 -44 8
-8 15 -27 15 -42 0 -15 10 -38 21 -50 29 -31 19 -71 -19 -80 -15 -4 -34 -12
-42 -19 -39 -31 -80 -24 -80 15 0 10 -7 31 -15 46 -8 16 -15 40 -15 54 0 14
-7 34 -15 44 -8 11 -15 38 -15 60 0 23 -7 50 -15 60 -8 11 -15 29 -15 40 0 11
-6 47 -14 80 -8 34 -22 95 -31 136 -9 41 -19 83 -21 92 -6 20 -58 48 -89 48
-12 0 -37 -7 -54 -16 -30 -15 -31 -18 -17 -32 13 -13 19 -14 40 -3 48 26 61
10 73 -97 11 -87 26 -167 53 -272 26 -102 34 -127 46 -152 8 -14 14 -39 14
-56 0 -16 7 -35 15 -42 8 -7 15 -22 15 -34 0 -12 7 -31 15 -42 8 -10 15 -25
15 -33 0 -8 14 -43 31 -79 35 -71 35 -71 -35 -92 -22 -6 -48 -16 -56 -21 -8
-5 -25 -13 -37 -18 -11 -6 -24 -15 -28 -20 -3 -6 -16 -11 -27 -11 -12 0 -32
-10 -45 -22 -34 -32 -53 -19 -87 62 -8 19 -24 58 -36 85 -11 28 -25 58 -30 67
-6 10 -10 28 -10 41 0 12 -6 31 -14 42 -7 11 -17 40 -21 65 -4 25 -12 48 -17
51 -6 4 -12 28 -15 55 -3 27 -11 63 -19 81 -8 17 -14 41 -14 53 0 12 -6 58
-14 103 -27 151 -36 214 -36 251 0 35 1 36 35 36 39 0 38 3 35 -91 -1 -45 4
-77 14 -97 10 -20 16 -58 16 -104 1 -44 6 -83 15 -98 8 -14 14 -36 15 -50 0
-14 6 -45 14 -70 8 -25 29 -92 47 -150 17 -58 38 -112 45 -121 8 -8 14 -28 14
-43 0 -14 6 -29 14 -32 8 -3 17 -20 21 -37 l7 -32 9 25 c7 17 6 31 -2 47 -11
20 -10 25 5 36 16 11 16 15 1 45 -9 17 -23 36 -31 40 -24 13 -74 175 -74 236
0 33 -5 58 -14 65 -12 10 -18 48 -32 191 -2 20 -17 76 -34 125 -28 84 -29 91
-13 103 9 6 24 12 33 12 9 0 27 11 40 25 13 14 32 25 42 25 13 0 18 6 16 18
-3 22 18 52 37 52 7 0 15 9 18 19 8 31 90 39 178 16z m4763 -24 c9 -10 17 -31
17 -47 0 -16 -1 -57 -1 -92 -1 -35 4 -79 11 -99 13 -41 -1 -107 -26 -117 -8
-3 -15 -12 -15 -21 0 -9 -11 -37 -24 -63 -22 -44 -46 -145 -61 -254 -4 -28
-16 -60 -29 -75 -26 -31 -86 -140 -86 -156 0 -6 -6 -18 -13 -26 -8 -9 -19 -36
-26 -61 -16 -54 -54 -112 -121 -180 -28 -28 -50 -56 -50 -62 0 -5 -10 -23 -22
-38 -13 -16 -48 -61 -78 -100 -30 -39 -84 -96 -120 -126 -36 -30 -88 -78 -117
-106 -28 -29 -70 -64 -93 -78 -23 -14 -61 -39 -85 -57 -24 -17 -58 -39 -77
-49 -37 -19 -90 -57 -128 -90 -26 -24 -125 -65 -199 -84 -24 -7 -54 -18 -67
-27 -13 -8 -29 -16 -36 -17 -29 -5 -94 -38 -115 -58 -19 -18 -37 -22 -102 -24
-43 -1 -111 -9 -152 -17 -119 -24 -254 -41 -273 -34 -14 6 -17 14 -11 46 3 21
8 68 9 104 2 36 6 69 9 74 3 5 13 65 22 133 10 69 22 130 27 137 5 7 7 16 5
20 -3 5 1 54 8 108 8 55 19 136 25 180 6 44 20 132 30 195 11 63 21 129 24
145 3 17 10 53 16 80 6 28 20 111 31 185 20 126 38 180 61 180 17 0 188 -161
188 -176 0 -8 7 -14 16 -14 9 0 36 -20 60 -45 23 -25 50 -45 58 -45 9 0 46
-31 83 -68 38 -38 93 -85 124 -105 30 -19 61 -43 69 -52 48 -57 270 -198 287
-182 15 15 -194 224 -502 501 -26 23 -243 229 -367 347 -40 39 -43 46 -29 68
10 15 97 34 122 26 15 -5 119 -117 285 -305 108 -122 218 -245 275 -305 36
-38 84 -90 105 -115 56 -64 166 -170 177 -170 9 0 0 38 -13 55 -4 6 -13 27
-19 48 -7 20 -17 37 -22 37 -6 0 -16 15 -24 34 -14 33 -153 207 -235 294 -22
23 -40 49 -40 57 0 8 -5 15 -10 15 -14 0 -74 42 -79 55 -2 5 -36 42 -75 81
-106 105 -152 213 -98 228 9 2 69 16 132 30 63 14 156 35 206 46 50 11 103 20
118 20 15 0 38 7 51 16 14 9 33 13 42 10 9 -4 31 0 48 8 31 15 294 78 400 96
32 6 64 15 69 20 6 6 27 10 49 10 21 0 48 5 60 11 11 7 37 14 56 16 20 3 49
12 64 20 15 7 32 11 37 8 5 -3 11 -1 14 4 4 5 35 9 70 10 49 0 67 -4 80 -18z
m-2492 -332 c5 -19 5 -88 1 -154 -4 -66 -6 -151 -5 -190 l1 -70 -19 25 c-10
13 -21 36 -24 50 -2 14 -8 38 -12 53 -4 20 -1 33 11 47 16 17 16 20 -4 47 -28
38 -46 135 -30 165 17 34 51 69 63 65 6 -2 14 -19 18 -38z m2632 -34 c11 -8
35 -15 53 -15 18 0 52 -6 75 -14 24 -7 86 -21 138 -31 52 -9 111 -21 131 -26
20 -5 53 -9 73 -9 47 0 54 -18 27 -70 -12 -22 -21 -57 -21 -76 0 -19 -5 -45
-12 -57 -6 -12 -15 -40 -19 -62 -9 -49 -29 -122 -40 -152 -11 -28 -40 -30 -64
-3 -10 11 -24 20 -30 20 -7 0 -26 7 -41 15 -16 8 -36 15 -44 15 -8 0 -24 7
-34 15 -11 8 -29 15 -40 15 -12 0 -30 7 -40 15 -11 8 -28 15 -39 15 -10 0 -31
6 -45 14 -40 20 -93 38 -130 43 -18 3 -35 10 -38 15 -7 12 11 80 32 120 8 14
14 43 14 65 0 21 7 47 15 57 8 11 15 39 15 63 0 38 3 43 23 43 12 0 31 -7 41
-15z m-67 -456 c54 -22 110 -47 125 -55 14 -8 33 -14 41 -14 9 0 29 -7 46 -15
17 -8 45 -22 62 -30 17 -8 40 -15 52 -15 26 0 90 -22 98 -34 9 -12 0 -43 -17
-57 -8 -6 -14 -22 -14 -34 0 -12 -7 -28 -15 -35 -8 -7 -15 -18 -15 -25 0 -12
-13 -40 -41 -95 -5 -8 -21 -42 -38 -75 -50 -101 -49 -101 -100 -55 -24 21 -73
57 -110 80 -93 57 -101 62 -146 90 -22 14 -47 29 -55 33 -59 28 -116 67 -118
82 -2 9 5 30 17 46 12 15 21 35 21 43 0 8 4 17 9 20 11 7 42 71 66 139 10 26
21 47 26 47 4 0 52 -18 106 -41z m-4570 9 c30 -66 91 -188 111 -223 7 -11 16
-30 21 -42 6 -11 15 -24 20 -28 6 -3 11 -15 11 -26 0 -10 5 -19 10 -19 6 0 15
-10 20 -22 18 -41 74 -120 128 -178 29 -32 25 -48 -16 -71 -19 -9 -41 -24 -50
-32 -19 -16 -62 -7 -62 13 0 7 -20 38 -45 70 -25 32 -45 61 -45 64 0 2 -19 33
-42 68 -61 91 -65 97 -93 153 -14 28 -30 57 -35 65 -5 8 -11 22 -14 30 -4 8
-17 35 -31 59 -37 65 -33 91 18 118 55 28 81 28 94 1z m-126 -265 c8 -10 25
-38 37 -63 13 -25 32 -58 42 -75 11 -16 23 -37 27 -45 15 -33 100 -150 150
-208 18 -20 33 -45 33 -54 0 -9 10 -20 21 -23 12 -4 56 -41 98 -83 148 -147
341 -304 463 -377 9 -5 67 -40 128 -77 61 -38 117 -68 124 -68 8 0 19 -7 26
-15 7 -8 20 -15 29 -15 10 0 26 -7 37 -15 10 -8 26 -15 35 -15 9 0 30 -7 45
-15 16 -8 37 -15 47 -15 9 0 17 -4 17 -9 0 -17 -23 -77 -36 -92 -8 -8 -14 -28
-14 -43 0 -15 -5 -36 -11 -47 -13 -26 -38 -112 -47 -164 -8 -48 -30 -56 -68
-26 -15 12 -35 21 -44 21 -10 0 -23 7 -30 15 -7 8 -21 15 -31 15 -10 0 -20 4
-23 9 -3 5 -43 28 -88 51 -46 22 -117 63 -158 91 -41 27 -82 52 -90 56 -26 12
-204 145 -289 216 -71 60 -279 265 -347 343 -63 72 -205 258 -217 284 -4 8
-29 49 -56 90 -27 41 -61 98 -75 127 -14 28 -31 55 -36 58 -18 11 -12 55 8 55
10 0 27 7 38 15 10 8 29 15 40 15 12 0 27 7 34 15 7 8 19 15 26 15 17 0 50 18
87 48 34 27 49 28 68 5z m4458 -127 c104 -69 181 -117 216 -136 11 -6 34 -19
50 -29 17 -11 50 -29 75 -41 70 -33 73 -35 84 -54 8 -13 7 -20 -4 -29 -9 -7
-33 -39 -55 -72 -47 -74 -152 -214 -177 -238 -18 -17 -21 -16 -99 55 -44 40
-88 77 -97 82 -9 5 -22 14 -28 20 -6 6 -33 29 -59 51 -27 22 -65 54 -84 71
-20 17 -51 40 -68 53 -18 12 -33 26 -33 30 0 9 28 45 65 84 46 48 90 107 114
155 12 23 24 42 28 42 4 0 36 -20 72 -44z m-3924 -245 c9 -30 293 -297 329
-310 6 -2 15 -10 19 -17 4 -8 12 -14 17 -14 5 0 37 -19 72 -42 35 -24 77 -50
93 -59 17 -9 56 -30 87 -48 31 -17 63 -31 71 -31 8 0 20 -7 27 -15 7 -8 22
-15 34 -15 11 0 30 -7 40 -15 11 -8 32 -15 48 -15 15 0 28 -4 28 -10 0 -5 6
-10 14 -10 23 0 24 -21 5 -75 -19 -56 -43 -67 -81 -41 -12 9 -32 16 -44 16
-12 0 -27 7 -34 15 -7 8 -19 15 -26 15 -15 0 -200 95 -282 145 -76 46 -257
178 -277 201 -5 6 -18 15 -27 20 -29 15 -248 226 -248 238 0 7 15 23 33 36 17
13 36 29 40 37 12 20 55 16 62 -6z m3681 -138 c92 -89 241 -217 308 -264 25
-18 46 -38 46 -44 0 -20 -289 -295 -310 -295 -12 0 -29 16 -46 43 -14 23 -31
47 -38 52 -6 6 -34 39 -61 75 -27 36 -59 75 -71 88 -12 12 -34 41 -50 65 -16
23 -45 59 -66 80 -21 21 -38 47 -38 56 0 10 19 31 43 47 52 36 167 147 167
163 0 29 42 4 116 -66z m-359 -249 c21 -31 43 -61 48 -67 34 -39 105 -137 105
-146 0 -6 4 -11 8 -11 4 0 33 -33 63 -74 29 -41 66 -82 81 -93 45 -30 48 -26
-120 -135 -15 -10 -34 -21 -42 -25 -15 -7 -71 -44 -80 -53 -9 -9 -44 -30 -67
-39 -11 -6 -24 -15 -28 -20 -12 -20 -53 -12 -60 12 -8 26 -82 176 -131 262
-18 33 -36 67 -39 75 -4 8 -11 22 -16 30 -5 8 -14 26 -20 40 -6 14 -21 39 -35
57 -13 17 -24 35 -24 40 0 4 36 26 80 48 44 21 113 65 153 96 39 32 75 58 79
58 4 1 24 -24 45 -55z m-354 -332 c76 -154 79 -159 95 -187 7 -11 16 -30 21
-42 6 -11 15 -24 20 -28 6 -3 11 -13 11 -22 0 -8 14 -33 31 -54 32 -40 33 -69
3 -69 -9 0 -28 -6 -42 -13 -27 -14 -81 -38 -137 -62 -16 -6 -47 -20 -68 -29
-21 -9 -46 -16 -55 -16 -10 0 -26 -6 -37 -13 -11 -8 -33 -17 -50 -20 -16 -3
-37 -8 -46 -12 -16 -6 -26 21 -49 130 -4 22 -13 54 -18 70 -6 17 -16 48 -22
70 -47 166 -60 207 -68 218 -13 15 -18 79 -8 95 4 6 22 12 41 12 19 0 37 5 40
10 3 6 14 10 23 10 9 0 30 7 46 15 15 8 34 15 42 15 14 0 96 39 104 50 7 10
34 18 45 13 6 -2 41 -65 78 -141z m-3285 111 c15 -9 37 -26 49 -37 12 -12 37
-32 57 -46 40 -29 73 -87 57 -103 -17 -17 -68 12 -131 76 -33 34 -60 69 -60
79 0 10 -4 18 -10 18 -5 0 -10 7 -10 15 0 20 14 19 48 -2z m2785 -170 c8 -27
18 -68 22 -93 4 -25 10 -49 13 -55 6 -9 51 -172 71 -255 5 -19 16 -50 26 -68
14 -27 15 -39 6 -58 -9 -21 -17 -24 -61 -24 -28 0 -65 -6 -83 -14 -18 -7 -70
-16 -117 -20 -47 -4 -90 -12 -95 -16 -6 -5 -60 -10 -120 -12 l-110 -3 -8 140
c-4 77 -6 212 -5 300 l3 160 108 7 c59 4 116 12 126 18 11 5 39 10 63 11 24 0
63 8 88 18 25 11 48 17 51 15 4 -2 13 -25 22 -51z m-1419 -102 c54 -17 112
-31 128 -31 16 0 39 -6 51 -12 12 -7 54 -16 92 -20 103 -10 143 -19 153 -32 5
-6 7 -76 3 -161 -5 -115 -3 -160 7 -192 22 -66 13 -77 -56 -68 -31 4 -62 11
-67 15 -6 5 -39 12 -74 16 -36 4 -76 13 -90 20 -14 8 -39 14 -55 14 -25 0 -65
10 -161 42 -16 5 -43 13 -60 18 -38 10 -93 30 -122 43 -26 12 -29 33 -8 61 8
11 15 31 15 45 0 14 7 35 15 45 8 11 15 32 15 46 0 14 7 35 15 46 8 10 15 31
15 46 0 14 9 47 20 73 19 44 20 45 42 31 13 -8 67 -28 122 -45z m906 -528 c36
-45 35 -71 -2 -93 -41 -22 -62 -5 -66 54 -3 44 9 76 28 76 5 0 23 -17 40 -37z
m-400 -43 c5 -31 -1 -40 -25 -40 -20 0 -25 5 -25 25 0 13 8 28 18 34 19 11 29
4 32 -19z"/>
<path d="M5478 12453 c-37 -9 -16 -23 35 -23 60 0 97 8 97 21 0 9 -100 11
-132 2z"/>
<path d="M5353 12423 c-45 -4 -60 -23 -19 -23 46 0 116 13 116 21 0 9 -15 9
-97 2z"/>
<path d="M5445 12315 c-16 -8 -49 -14 -71 -15 -24 0 -47 -6 -54 -15 -7 -8 -22
-15 -34 -15 -29 0 -50 -15 -42 -29 9 -14 72 -4 101 15 11 8 43 14 72 14 35 0
67 7 95 22 41 21 41 23 18 29 -36 10 -51 9 -85 -6z"/>
<path d="M4171 11876 c-9 -11 2 -27 54 -80 36 -36 68 -66 71 -66 9 0 74 63 74
72 0 5 -15 6 -34 3 -30 -6 -39 -2 -85 39 -56 50 -63 53 -80 32z"/>
<path d="M4265 9891 c-45 -4 -55 -8 -40 -14 23 -10 596 -7 706 3 l74 7 -65 2
c-249 6 -625 8 -675 2z"/>
<path d="M7072 9884 c9 -9 311 -12 333 -3 11 4 -60 8 -159 8 -99 1 -177 -2
-174 -5z"/>
<path d="M6038 9300 c-9 -277 -8 -1112 1 -1220 6 -73 7 -71 15 70 13 231 12
776 -3 1205 l-6 180 -7 -235z"/>
<path d="M6260 9317 c0 -7 5 -18 10 -23 6 -6 12 -37 15 -70 7 -104 6 -102 15
-74 4 14 8 52 9 85 0 53 -3 62 -24 78 -19 13 -25 15 -25 4z"/>
<path d="M6256 9043 c-3 -21 -6 -54 -6 -74 0 -20 -7 -53 -15 -72 -9 -22 -15
-68 -15 -114 -1 -53 -5 -84 -15 -97 -19 -26 -21 -160 -3 -154 14 5 35 123 46
258 4 47 13 95 20 107 14 25 17 183 3 183 -4 0 -11 -17 -15 -37z"/>
<path d="M6163 8459 c-6 -6 -8 -37 -5 -78 3 -45 1 -71 -7 -75 -6 -4 -11 -17
-11 -29 l0 -21 22 22 c18 17 23 36 26 91 4 73 -6 109 -25 90z"/>
<path d="M5974 6385 c-13 -34 28 -49 46 -16 14 28 13 31 -15 31 -14 0 -28 -7
-31 -15z"/>
<path d="M3555 9550 c-4 -6 12 -10 39 -10 25 0 46 5 46 10 0 6 -18 10 -39 10
-22 0 -43 -4 -46 -10z"/>
<path d="M3338 9452 c-16 -18 -16 -49 -4 -162 4 -36 9 -85 11 -110 1 -25 8
-69 14 -99 6 -29 8 -57 5 -62 -3 -6 -1 -15 4 -22 5 -7 13 -28 17 -47 3 -19 15
-53 25 -75 10 -22 21 -66 25 -98 7 -53 10 -59 46 -79 22 -12 39 -25 39 -30 0
-4 7 -8 15 -8 20 0 20 48 0 86 -8 16 -15 37 -15 46 0 9 -4 20 -10 23 -5 3 -10
16 -10 29 0 12 -7 31 -15 42 -8 10 -15 35 -15 55 0 19 -7 44 -15 55 -8 10 -15
39 -15 64 0 25 -9 63 -20 85 -13 27 -19 62 -20 106 0 37 -7 83 -15 102 -8 20
-15 52 -15 71 0 42 -12 52 -32 28z"/>
<path d="M3634 8438 c2 -56 6 -67 34 -95 18 -17 32 -38 32 -47 0 -9 10 -22 23
-30 12 -8 31 -35 42 -60 13 -29 30 -50 47 -57 15 -6 34 -22 43 -35 13 -21 55
-35 55 -18 0 7 -90 135 -107 152 -7 7 -13 18 -13 23 0 5 -5 15 -10 22 -6 7
-34 48 -63 93 -29 44 -60 88 -69 97 -16 16 -17 13 -14 -45z"/>
<path d="M3576 8273 c-11 -11 -6 -23 9 -23 8 0 15 4 15 9 0 13 -16 22 -24 14z"/>
<path d="M3903 8073 c-7 -2 -13 -11 -13 -19 0 -8 -5 -14 -10 -14 -11 0 -61
-33 -94 -63 -15 -13 -17 -20 -8 -29 9 -9 20 -7 49 8 21 10 40 22 43 25 3 4 15
9 28 13 12 4 22 12 22 17 0 5 9 9 19 9 12 0 26 12 35 30 l14 30 -36 -1 c-20 0
-43 -3 -49 -6z"/>
<path d="M4340 7662 c19 -15 52 -44 72 -64 20 -21 41 -38 45 -38 5 0 20 -11
33 -25 13 -14 28 -25 33 -25 15 0 107 -60 150 -97 20 -18 45 -33 56 -33 10 0
38 -13 62 -30 24 -16 53 -30 65 -30 11 0 25 -5 31 -11 13 -13 99 -8 96 6 -1 6
-15 14 -32 19 -17 5 -31 13 -31 17 0 5 -6 9 -12 9 -21 0 -200 95 -325 171 -35
22 -66 39 -69 39 -3 0 -23 12 -43 28 -45 34 -70 49 -98 61 -11 6 -24 15 -28
20 -3 6 -14 11 -23 11 -12 -1 -6 -9 18 -28z"/>
<path d="M4354 7429 c-3 -5 5 -14 18 -19 34 -15 62 -33 71 -47 4 -7 16 -13 26
-13 11 0 21 -7 25 -15 3 -8 12 -15 21 -15 8 0 15 -4 15 -8 0 -5 10 -14 23 -21
12 -6 36 -20 52 -31 17 -11 36 -22 43 -25 6 -3 18 -7 25 -10 6 -3 32 -16 56
-30 24 -14 50 -25 56 -25 7 0 18 -7 25 -15 14 -17 60 -21 60 -5 0 5 -12 17
-27 26 -16 9 -39 24 -53 34 -14 9 -47 25 -75 35 -27 10 -57 24 -66 32 -8 7
-25 13 -37 13 -12 0 -22 4 -22 9 0 5 -21 20 -47 32 -27 13 -54 29 -61 36 -7 7
-19 13 -27 13 -7 0 -15 7 -19 15 -3 8 -12 15 -21 15 -8 0 -15 4 -15 9 0 12
-39 21 -46 10z"/>
<path d="M6583 7335 c-23 -20 -25 -24 -10 -25 23 0 68 30 61 41 -9 14 -21 11
-51 -16z"/>
<path d="M6402 7321 c-11 -7 -10 -10 3 -15 37 -14 130 -2 119 15 -7 11 -105
11 -122 0z"/>
<path d="M6490 6910 c0 -13 30 -13 50 0 11 7 7 10 -17 10 -18 0 -33 -4 -33
-10z"/>
<path d="M5180 7233 c0 -5 17 -21 37 -37 35 -29 113 -56 159 -56 12 0 37 -6
56 -14 37 -16 198 -11 198 6 0 12 -15 17 -90 27 -36 5 -92 17 -125 26 -33 9
-81 20 -108 24 -26 4 -53 13 -59 19 -13 13 -68 17 -68 5z"/>
<path d="M5162 7053 c-32 -6 -22 -26 17 -34 18 -4 38 -12 44 -18 6 -6 22 -11
37 -11 14 0 39 -7 55 -16 17 -9 55 -20 85 -25 30 -4 84 -15 120 -25 72 -18
160 -25 160 -13 0 11 -88 49 -112 49 -11 0 -34 6 -51 14 -57 24 -161 57 -188
60 -14 1 -32 6 -39 11 -16 10 -92 14 -128 8z"/>
<path d="M6170 11661 c0 -12 5 -21 10 -21 6 0 10 6 10 14 0 8 -4 18 -10 21 -5
3 -10 -3 -10 -14z"/>
<path d="M6200 11390 c0 -18 4 -29 10 -25 6 3 10 15 10 25 0 10 -4 22 -10 25
-6 4 -10 -7 -10 -25z"/>
<path d="M6226 11230 c-9 -25 -9 -61 1 -255 9 -173 11 -200 18 -218 4 -10 3
-23 -4 -30 -9 -9 -6 -16 11 -29 24 -18 24 -17 -7 -90 -5 -14 -2 -18 14 -18 14
0 23 -8 27 -25 3 -14 10 -25 15 -25 13 0 11 204 -2 237 -7 15 -15 80 -19 143
-4 63 -13 135 -19 160 -5 25 -14 74 -18 110 -7 55 -10 61 -17 40z"/>
<path d="M6039 10439 c-4 -92 4 -260 10 -204 9 88 10 122 3 210 l-8 100 -5
-106z"/>
<path d="M6322 10470 c0 -19 2 -27 5 -17 2 9 2 25 0 35 -3 9 -5 1 -5 -18z"/>
<path d="M3102 9709 c-45 -3 -85 -9 -88 -12 -8 -8 74 -29 111 -29 56 0 109 32
73 44 -7 2 -50 1 -96 -3z"/>
<path d="M2872 9691 c2 -7 7 -12 11 -12 12 1 9 15 -3 20 -7 2 -11 -2 -8 -8z"/>
</g>
</svg>
